<?xml version="1.0" encoding="utf-8"?>
<!-- Generator: Adobe Illustrator 23.0.4, SVG Export Plug-In . SVG Version: 6.00 Build 0)  -->
<svg version="1.1" id="Layer_1" xmlns="http://www.w3.org/2000/svg" xmlns:xlink="http://www.w3.org/1999/xlink" x="0px" y="0px"
	 viewBox="0 0 525.4 207.5" style="enable-background:new 0 0 525.4 207.5;" xml:space="preserve">
<style type="text/css">
	.st0{fill:#D56B38;}
	.st1{fill:#FFFFFF;}
	.st2{fill:#26242B;}
	.st3{fill:#F5DB12;}
	.st4{fill:#2767AE;}
	.st5{fill:#8998B0;}
</style>
<g>
	<path class="st0" d="M381.2,150.3L276.5,45.6c-10.2-10.2-10.2-26.8,0-37s26.8-10.2,37,0l104.7,104.7c10.2,10.2,10.2,26.8,0,37
		C407.9,160.5,391.3,160.5,381.2,150.3z"/>
	<path class="st1" d="M295,156.8c-6.6,0-13-2.6-17.6-7.2c-9.7-9.8-9.7-25.5,0-35.4l35.4-35.4h-0.1c9.6-10.1,15-22.4,15.6-34.9
		c0.4-8.4-1.3-16.6-5-23.9l17,17c1.9,1.8,4.5,2.8,7.2,2.8c2.5,0,4.8-0.8,6.6-2.4l0,0l0.7-0.7L382,9.5c4.7-4.7,11-7.2,17.6-7.2
		s13,2.6,17.6,7.2c4.7,4.7,7.2,11,7.2,17.6s-2.6,12.9-7.2,17.6L382,80l0,0c-9.6,10.1-15,22.5-15.7,35c-0.4,8.4,1.3,16.6,5,23.9
		l-16.9-16.8c-2-1.9-4.6-2.9-7.2-2.9c-2.6,0-5.2,1-7.2,2.8l-27.5,27.5C307.9,154.2,301.6,156.8,295,156.8z"/>
	<path class="st2" d="M399.6,3.4c6.4,0,12.4,2.5,16.9,7c9.3,9.3,9.3,24.5,0,33.8l-33.9,33.9l-2.7,2.7h0.2c-8.8,10-14.1,22-14.8,34.2
		c-0.4,6.5,0.5,12.9,2.7,18.9l-12.6-12.6l0,0l0,0c-2.2-2.1-5-3.3-8-3.3c-2.9,0-5.8,1.2-8,3.1l0,0l0,0L312,148.7
		c-4.5,4.5-10.5,7-16.9,7s-12.4-2.5-16.9-7c-9.3-9.3-9.3-24.5,0-33.8L311.9,81l2.8-2.8h-0.2c8.8-10,14.1-21.9,14.8-34.2
		c0.4-6.5-0.5-12.9-2.7-18.9l12.6,12.6l0,0l0,0c2.2,2,4.9,3.1,8,3.1c2.4,0,4.7-0.7,6.5-2l0.2,0.2l1.5-1.5l27.2-27.2
		C387.2,5.8,393.2,3.4,399.6,3.4z M399.6,1.1c-6.7,0-13.3,2.5-18.5,7.7L354,35.9c-1.9,1.9-4.2,2.7-6.6,2.7c-2.3,0-4.6-0.8-6.5-2.5
		L313.4,8.7c20.1,20.1,17.5,50.2-3.1,70.8h0.1l-33.9,33.9c-10.2,10.2-10.2,26.8,0,37c5,5,11.8,7.7,18.5,7.7s13.3-2.5,18.5-7.7
		l27.5-27.4c1.8-1.7,4.2-2.5,6.5-2.5c2.4,0,4.7,0.9,6.5,2.6l27.2,27.3c-20.1-20.1-17.5-50.2,3.1-70.8l33.9-33.9
		c10.2-10.2,10.2-26.8,0-37C413,3.7,406.3,1.1,399.6,1.1z"/>
	<path class="st3" d="M448,111.8V47.3c0-6.3,5-11.3,11.3-11.3c6.3,0,11.3,5,11.3,11.3v64.5c0,6.3-5,11.3-11.3,11.3
		C453.2,123.2,448,117.9,448,111.8z"/>
	<path class="st1" d="M449.2,94.9c-0.1-2.7-2.3-5-5-5.1h-17c-5.7,0-10.3-4.6-10.3-10.3c0-2.7,1-5.4,2.9-7.2c1.9-1.9,4.5-2.9,7.2-2.9
		h22.9l-0.1-0.1c5.7-0.4,11-2.5,14.9-6c1.9-1.8,3.6-3.9,4.7-6.2v7.2c0.1,2.5,1.9,4.4,4.2,4.9v0.1h1.2h16.8c5.7,0,10.3,4.6,10.3,10.3
		s-4.6,10.3-10.3,10.3h-22.9V90c-5.7,0.4-11,2.5-14.9,6c-1.9,1.8-3.6,3.9-4.8,6.2L449.2,94.9z"/>
	<path class="st2" d="M468.6,60.9v3.3l0,0l0,0c0.1,2.6,1.9,4.9,4.2,5.7c0,0,1.3,0.4,2.1,0.4c0.8,0,16.8,0,16.8,0
		c5,0,9.1,4.1,9.1,9.1s-4.1,9.1-9.1,9.1c0,0-18.9,0-20.9,0c-2,0-4.9,0.5-5.4,0.6c-4.6,0.9-8.9,2.9-12.2,5.8c-1,0.9-2,1.9-2.8,3.1
		v-3.1l0,0l0,0c-0.1-3.4-2.7-6.1-6.1-6.3l0,0l0,0h-17c-5,0-9.1-4.1-9.1-9.1c0-2.4,0.9-4.7,2.6-6.5c1.7-1.8,4.1-2.6,6.5-2.6
		c0,0,19.2,0,20.9,0s3.9-0.3,3.9-0.3c5.2-0.7,10.1-2.8,13.8-6.1C466.7,63.1,467.8,62.1,468.6,60.9z M470.7,49.5
		c-1.2,11.1-10.8,18.6-22.7,18.6l0,0h-20.9c-6.3,0-11.3,5-11.3,11.3s5,11.3,11.3,11.3H444c2.1,0.1,3.9,1.9,4,4.1v15.7
		c0,0,0,0.4,0,0.1c0.5-11.8,10.4-19.9,22.8-19.9h20.9c6.3,0,11.3-5,11.3-11.3s-5-11.3-11.3-11.3h-16.8c-2.2,0-4.1-1.8-4.2-4l0.1-9.6
		C470.8,54.6,470.8,48.8,470.7,49.5z"/>
	<path class="st4" d="M257.1,27.2c0-14.4-11.8-26.1-26.1-26.1c-14.4,0-26.1,11.8-26.1,26.1v49.7v11c0,9.9-8,17.8-17.8,17.8
		c0,0-5.9,0-8.4,0s-8.3,0-8.4,0c-9.9,0-17.8-8-17.8-17.8V76.8v81h52.5h4.3h1.7l0,0c27.5-0.9,46.2-23.6,46.2-52.2V66.9L257.1,27.2
		L257.1,27.2z"/>
	<path class="st1" d="M147.9,156.8c-13.2,0-25.2-5.2-33.8-14.8c-8.4-9.4-13-22.3-13-36.2V27.2c0-13.8,11.1-25,25-25
		c13.9,0,25.1,11.1,25.1,25v40.5h0.1v42.3c0,13.9,5.6,26.4,15.6,35.4c5.9,5.2,13.1,9,21,11.3H147.9z"/>
	<path class="st2" d="M126.3,3.4c13.1,0,23.9,10.7,23.9,23.8v39.7v1.7h0.1v41.5c0,7.2,1.5,14.1,4.2,20.4c2.6,6,6.6,11.3,11.8,15.9
		c4.3,3.9,9.4,7,15,9.4H148c-6.5,0-12.8-1.3-18.6-3.9c-5.5-2.5-10.3-6-14.4-10.5c-8.2-9.1-12.7-21.7-12.7-35.5V66.9V27.2
		C102.3,14,113,3.4,126.3,3.4z M126.3,1.1c-14.4,0-26.1,11.8-26.1,26.1v39.7v38.8c0,29.1,19.5,52.2,47.9,52.2h56.7
		c-29.1,0-52.2-19.4-52.2-47.9V66.9h-0.1V27.2C152.3,12.8,140.6,1.1,126.3,1.1z"/>
</g>
<g>
	<path class="st0" d="M114.4,184.2l-4-13.1h-5.6l-4,13.1h3.1l1-3.2h5.3l1,3.2H114.4z M106.7,175l0.7-2.9l0.7,2.9l1.1,3.6h-3.8
		L106.7,175z"/>
	<path class="st0" d="M126.7,178.3l0.1,4.6l-4-11.7h-5.5v13.1h3.1v-7.3l-0.1-4.5l4,11.9h5.5v-13.1h-3.1V178.3z"/>
	<path class="st0" d="M142.1,178.8h6.1v-2.4h-6.1v-2.7h6.4v-2.6H139v13.1h9.7v-2.6h-6.5V178.8L142.1,178.8z"/>
	<path class="st0" d="M165.1,171.1h-3.5l-2.2,3.1l-1.3,2.3l-1.3-2.3l-2.2-3.1H151l4.2,6.2l-4.6,6.9h3.5l2.5-3.7l1.3-2.3l1.3,2.3
		l2.5,3.7h3.5l-4.6-7L165.1,171.1z"/>
	<path class="st0" d="M168.2,171.1v13.1h3.1v-4.6h3.3c1.3,0,2.3-0.4,3.1-1.2c0.7-0.7,1.1-1.9,1.1-3.1c0-1.3-0.4-2.3-1.1-3.1
		c-0.7-0.7-1.8-1.2-3.1-1.2L168.2,171.1L168.2,171.1z M171.4,177.3v-3.6h2.5c1.3,0,1.9,0.5,1.9,1.9s-0.5,1.9-1.9,1.9L171.4,177.3
		L171.4,177.3z"/>
	<path class="st0" d="M185.1,178.8h6.1v-2.4h-6.1v-2.7h6.4v-2.6H182v13.1h9.7v-2.6h-6.5V178.8z"/>
	<path class="st0" d="M207.5,184.2l-2.4-3.9l-1.1-1.5c1.5-0.6,2.3-2.1,2.3-3.7c0-1.2-0.4-2.2-1.1-2.9s-1.8-1.1-3.1-1.1h-6.7v13.2
		h3.1v-5h2.4l3,5H207.5z M201.3,173.5c1.3,0,1.9,0.4,1.9,1.7c0,1.2-0.5,1.8-1.9,1.8h-2.7v-3.3L201.3,173.5L201.3,173.5z"/>
	<path class="st0" d="M210.2,184.2h3.1v-13.1h-3.1V184.2z"/>
	<path class="st0" d="M220.8,178.8h6.1v-2.4h-6.1v-2.7h6.4v-2.6h-9.6v13.1h9.7v-2.6h-6.5V178.8L220.8,178.8z"/>
	<path class="st0" d="M240.4,178.3l0.1,4.6l-4-11.7H231v13.1h3.1v-7.3l-0.1-4.5l4,11.9h5.5v-13.1h-3.1V178.3z"/>
	<path class="st0" d="M248.8,182.7c1.2,1.2,2.8,1.9,4.8,1.9c1.8,0,3.1-0.4,4.4-1.3c1.1-0.9,1.7-2.2,1.7-3.6h-3.1
		c0,1.6-0.8,2.3-2.9,2.3c-1.2,0-2.1-0.4-2.5-1c-0.5-0.6-0.8-1.7-0.8-3.1s0.3-2.5,0.8-3.1c0.5-0.6,1.3-0.9,2.6-0.9
		c2.1,0,2.9,0.7,2.9,2.5h3.1c0-1.6-0.5-2.8-1.7-3.8c-1.1-0.9-2.6-1.3-4.3-1.3c-2,0-3.5,0.6-4.8,1.9c-1.2,1.2-1.9,2.9-1.9,5
		C247,179.7,247.7,181.4,248.8,182.7z"/>
	<path class="st0" d="M266.1,178.8h6.1v-2.4h-6.1v-2.7h6.4v-2.6H263v13.1h9.7v-2.6h-6.5V178.8z"/>
	<path class="st0" d="M282.4,182.7c1.2,1.2,2.8,1.9,4.8,1.9c1.8,0,3.1-0.4,4.4-1.3c1.1-0.9,1.7-2.2,1.7-3.6h-3.1
		c0,1.6-0.8,2.3-2.9,2.3c-1.2,0-2.1-0.4-2.5-1c-0.5-0.6-0.8-1.7-0.8-3.1s0.3-2.5,0.7-3.1c0.5-0.6,1.3-0.9,2.6-0.9
		c2.1,0,2.9,0.7,2.9,2.5h3.1c0-1.6-0.5-2.8-1.7-3.8c-1.1-0.9-2.6-1.3-4.3-1.3c-2,0-3.5,0.6-4.8,1.9c-1.2,1.2-1.9,2.9-1.9,5
		C280.6,179.7,281.2,181.4,282.4,182.7z"/>
	<path class="st0" d="M307.5,182.7c1.2-1.2,1.9-2.9,1.9-5s-0.6-3.7-1.9-5c-1.2-1.2-2.9-1.9-4.9-1.9c-2.1,0-3.6,0.6-5,1.9
		c-1.2,1.2-1.9,2.9-1.9,5s0.6,3.7,1.9,5s2.9,1.9,5,1.9C304.6,184.5,306.2,183.9,307.5,182.7z M300,180.8c-0.5-0.6-0.8-1.7-0.8-3.1
		s0.3-2.5,0.8-3.1c0.5-0.6,1.5-0.9,2.7-0.9c1.2,0,2.2,0.4,2.7,0.9c0.5,0.6,0.8,1.7,0.8,3.1s-0.3,2.5-0.8,3.1c-0.5,0.6-1.5,1-2.7,1
		S300.5,181.5,300,180.8z"/>
	<path class="st0" d="M322.3,178.3l0.1,4.6l-4-11.7h-5.5v13.1h3.1v-7.3l-0.1-4.5l4,11.9h5.5v-13.1h-3.1V178.3z"/>
	<path class="st0" d="M338.9,171.1h-9.4v13.1h3.1v-5.3h5.9v-2.4h-5.9v-2.8h6.2v-2.6H338.9z"/>
	<path class="st0" d="M345.4,178.8h6.1v-2.4h-6.1v-2.7h6.4v-2.6h-9.6v13.1h9.7v-2.6h-6.5V178.8z"/>
	<path class="st0" d="M367.7,184.2l-2.4-3.9l-1.1-1.5c1.5-0.6,2.3-2.1,2.3-3.7c0-1.2-0.4-2.2-1.1-2.9s-1.8-1.1-3.1-1.1h-6.7v13.2
		h3.1v-5h2.4l3,5H367.7z M361.5,173.5c1.3,0,1.9,0.4,1.9,1.7c0,1.2-0.5,1.8-1.9,1.8h-2.8v-3.3L361.5,173.5L361.5,173.5z"/>
	<path class="st0" d="M373.6,178.8h6.1v-2.4h-6.1v-2.7h6.4v-2.6h-9.6v13.1h9.7v-2.6h-6.5V178.8z"/>
	<path class="st0" d="M393.3,178.3l0.1,4.6l-4-11.7h-5.5v13.1h3.1v-7.3l-0.1-4.5l4,11.9h5.5v-13.1h-3.1V178.3L393.3,178.3z"/>
	<path class="st0" d="M401.7,182.7c1.2,1.2,2.8,1.9,4.8,1.9c1.8,0,3.1-0.4,4.4-1.3c1.1-0.9,1.7-2.2,1.7-3.6h-3.1
		c0,1.6-0.8,2.3-2.9,2.3c-1.2,0-2.1-0.4-2.5-1c-0.5-0.6-0.8-1.7-0.8-3.1s0.3-2.5,0.7-3.1c0.5-0.6,1.3-0.9,2.6-0.9
		c2.1,0,2.9,0.7,2.9,2.5h3.1c0-1.6-0.5-2.8-1.7-3.8c-1.1-0.9-2.6-1.3-4.3-1.3c-2,0-3.5,0.6-4.8,1.9c-1.2,1.2-1.9,2.9-1.9,5
		C400,179.7,400.5,181.4,401.7,182.7z"/>
	<path class="st0" d="M419.1,178.8h6.1v-2.4h-6.1v-2.7h6.4v-2.6h-9.6v13.1h9.7v-2.6h-6.5V178.8z"/>
</g>
<g>
	<circle class="st3" cx="233.4" cy="199.6" r="2.4"/>
	<circle class="st3" cx="338" cy="199.6" r="2.4"/>
</g>
<g>
	<g>
		<path class="st5" d="M103.7,203.1h4.8v1.8h-7.7V202l4-2.1c0.6-0.3,1-0.6,1.1-0.9s0.3-0.6,0.3-1.1c0-1-0.5-1.5-1.7-1.5
			c-1.2,0-1.7,0.6-1.7,2.1h-2.1c0-1.1,0.3-2.1,1-2.8s1.6-1.1,2.7-1.1c1.1,0,2,0.3,2.7,0.9s1,1.3,1,2.3c0,1.3-0.7,2.4-2.2,3.1
			l-3.1,1.7l-1.1,0.4L103.7,203.1z"/>
		<path class="st5" d="M118.3,201.2v1.6h-1.9v2h-2.1v-2h-4.5v-3.4l3.2-4.5h3.4v6.3H118.3z M112,201.2h2.3v-3.4l0.1-2.2l-3.9,5.6
			L112,201.2z"/>
		<path class="st5" d="M130,204.8l-0.8-2.6H125l-0.8,2.6h-2.1l3.2-9.9h3.6l3.2,9.9H130z M125.5,200.6h3.1l-0.9-2.9l-0.6-2.1
			l-0.6,2.1L125.5,200.6z"/>
		<path class="st5" d="M133.6,195h2.1v6.3c0,1.4,0.7,2,2.2,2c1.6,0,2.2-0.6,2.2-2V195h2.1v6.4c0,1.1-0.4,2-1.2,2.7
			c-0.8,0.7-1.8,1-3.1,1s-2.3-0.3-3.1-1c-0.8-0.7-1.2-1.6-1.2-2.7V195z"/>
		<path class="st5" d="M148.7,199.5h5.1v5.3H152v-2.4c-0.4,1.8-1.5,2.6-3.3,2.6c-1.4,0-2.4-0.5-3.3-1.4c-0.8-0.9-1.2-2.2-1.2-3.7
			c0-1.6,0.5-2.8,1.4-3.8s2.1-1.4,3.6-1.4c1.4,0,2.4,0.3,3.3,1c0.8,0.7,1.2,1.6,1.2,2.7h-2.1c0-1.4-0.7-1.9-2.5-1.9
			c-1,0-1.7,0.3-2.2,0.8s-0.7,1.4-0.7,2.6c0,1.2,0.2,2,0.7,2.6s1.2,0.8,2.2,0.8c1.8,0,2.5-0.7,2.6-2.3h-3.1V199.5z"/>
		<path class="st5" d="M156.3,195h2.1v6.3c0,1.4,0.7,2,2.2,2c1.6,0,2.2-0.6,2.2-2V195h2.1v6.4c0,1.1-0.4,2-1.2,2.7
			c-0.8,0.7-1.8,1-3.1,1s-2.3-0.3-3.1-1c-0.8-0.7-1.2-1.6-1.2-2.7V195z"/>
		<path class="st5" d="M168,204.1c-0.8-0.6-1.2-1.4-1.2-2.4h2.1c0,1.2,0.7,1.7,2.3,1.7c1.5,0,2.2-0.4,2.2-1.1c0-0.2,0-0.4-0.1-0.6
			c-0.1-0.1-0.4-0.3-0.8-0.5c-0.4-0.2-1-0.3-1.8-0.5c-1.3-0.2-2.3-0.6-2.8-1c-0.6-0.5-0.9-1.1-0.9-1.9c0-0.9,0.4-1.7,1.1-2.2
			c0.7-0.6,1.7-0.9,3-0.9c1.3,0,2.3,0.3,3,0.9c0.8,0.6,1.1,1.5,1.1,2.5h-2.1c0-1.3-0.7-1.8-2.1-1.8c-1.3,0-2,0.4-2,1.1
			c0,0.4,0.2,0.6,0.5,0.8c0.3,0.2,1.1,0.4,2.1,0.6c1.3,0.2,2.3,0.6,2.9,1.1s0.9,1.1,0.9,1.9c0,0.9-0.4,1.6-1.2,2.2s-1.8,0.8-3.1,0.8
			C169.9,205,168.8,204.7,168,204.1z"/>
		<path class="st5" d="M185.1,195v1.7h-3.4v8.1h-2.1v-8.1h-3.4V195H185.1z"/>
		<path class="st5" d="M192.5,203.1h4.8v1.8h-7.7V202l4-2.1c0.6-0.3,1-0.6,1.1-0.9s0.3-0.6,0.3-1.1c0-1-0.5-1.5-1.7-1.5
			c-1.2,0-1.7,0.6-1.7,2.1h-2.1c0-1.1,0.3-2.1,1-2.8s1.6-1.1,2.7-1.1c1.1,0,2,0.3,2.7,0.9s1,1.3,1,2.3c0,1.3-0.7,2.4-2.2,3.1
			l-3.1,1.7l-1.1,0.4L192.5,203.1z"/>
		<path class="st5" d="M203.2,205c-1.3,0-2.4-0.5-3.3-1.4s-1.2-2.2-1.2-3.7s0.4-2.8,1.2-3.7s1.9-1.4,3.3-1.4s2.4,0.5,3.3,1.4
			s1.2,2.2,1.2,3.7s-0.4,2.8-1.2,3.7S204.6,205,203.2,205z M203.2,203.3c0.8,0,1.4-0.3,1.8-0.8s0.6-1.4,0.6-2.5c0-1.2-0.2-2-0.6-2.6
			s-1-0.8-1.8-0.8c-0.8,0-1.4,0.3-1.8,0.8s-0.6,1.4-0.6,2.6c0,1.2,0.2,2,0.6,2.5S202.4,203.3,203.2,203.3z"/>
		<path class="st5" d="M214.5,195v9.9h-2.1v-6.5l0.1-2.4l-1,1l-2.2,2v-2.3l1.9-1.7H214.5z"/>
		<path class="st5" d="M224.1,196.1c0.8,0.9,1.2,2.1,1.2,3.8c0,1.6-0.4,2.8-1.2,3.7s-1.9,1.4-3.3,1.4c-1.1,0-2-0.3-2.7-0.9
			c-0.7-0.6-1-1.4-1-2.3h2c0,1,0.5,1.5,1.7,1.5c0.8,0,1.4-0.3,1.8-0.8s0.6-1.4,0.6-2.6v-0.4c-0.2,0.5-0.6,0.9-1.1,1.3
			c-0.5,0.3-1.2,0.5-1.9,0.5c-1,0-1.8-0.3-2.4-0.8s-0.9-1.3-0.9-2.2c0-1,0.3-1.9,1.1-2.5c0.7-0.6,1.6-0.9,2.8-0.9
			C222.2,194.8,223.3,195.2,224.1,196.1z M223,198.2c0-1.2-0.6-1.8-2.2-1.8c-1.3,0-1.8,0.5-1.8,1.7c0,1.1,0.6,1.6,1.9,1.6
			C222.3,199.7,223,199.2,223,198.2z"/>
	</g>
	<g>
		<path class="st5" d="M246.8,195.3v9.9h-2.1v-6.5l0.1-2.4l-1,1l-2.2,2v-2.3l1.9-1.7H246.8z"/>
		<path class="st5" d="M254.3,195.3c1,0,1.7,0.3,2.3,0.9s0.9,1.3,0.9,2.3c0,0.9-0.3,1.7-0.9,2.3s-1.3,0.9-2.3,0.9h-2.5v3.6h-2.1
			v-9.9H254.3z M253.8,199.9c1.1,0,1.5-0.5,1.5-1.5s-0.5-1.5-1.5-1.5h-2.1v3H253.8z"/>
		<path class="st5" d="M270.9,195.3v9.9h-2.1v-7.2l0-1.8l-2.3,9h-2.8l-2.4-9l0,1.8v7.2h-2.1v-9.9h3.6l1.9,6.9l0.3,1.8l0.3-1.8
			l1.9-6.9H270.9z"/>
		<path class="st5" d="M284.4,195.3v1.7h-3.4v8.1H279V197h-3.4v-1.7H284.4z"/>
		<path class="st5" d="M290.3,205.3c-1.5,0-2.7-0.5-3.6-1.4s-1.4-2.2-1.4-3.7s0.5-2.8,1.4-3.7s2.1-1.4,3.6-1.4
			c1.5,0,2.7,0.5,3.6,1.4s1.4,2.2,1.4,3.7s-0.5,2.8-1.4,3.7S291.8,205.3,290.3,205.3z M290.3,203.6c1,0,1.7-0.3,2.2-0.8
			s0.7-1.4,0.7-2.6s-0.2-2-0.7-2.6s-1.2-0.8-2.2-0.8c-1,0-1.7,0.3-2.2,0.8s-0.7,1.4-0.7,2.6s0.2,2,0.7,2.6S289.3,203.6,290.3,203.6z
			"/>
		<path class="st5" d="M299.8,195.3h7.2v3.1c-1,0.7-1.9,1.7-2.5,2.9c-0.7,1.2-1,2.5-1,3.8h-2.1c0-1.6,0.5-3.1,1.4-4.6
			s2.3-2.7,3.9-3.6l-2.5,0.1h-4.3V195.3z"/>
		<path class="st5" d="M313.6,195.3c1,0,1.7,0.3,2.3,0.9s0.9,1.3,0.9,2.3c0,0.9-0.3,1.7-0.9,2.3s-1.3,0.9-2.3,0.9h-2.5v3.6H309v-9.9
			H313.6z M313.2,199.9c1.1,0,1.5-0.5,1.5-1.5s-0.5-1.5-1.5-1.5h-2.1v3H313.2z"/>
		<path class="st5" d="M330.3,195.3v9.9h-2.1v-7.2l0-1.8l-2.3,9h-2.8l-2.4-9l0,1.8v7.2h-2.1v-9.9h3.6l1.9,6.9l0.3,1.8l0.3-1.8
			l1.9-6.9H330.3z"/>
	</g>
	<g>
		<path class="st5" d="M346.6,204.1c-0.8-0.6-1.2-1.4-1.2-2.4h2.1c0,1.2,0.7,1.7,2.3,1.7c1.5,0,2.2-0.4,2.2-1.1c0-0.2,0-0.4-0.1-0.6
			c-0.1-0.1-0.4-0.3-0.8-0.5c-0.4-0.2-1-0.3-1.8-0.5c-1.3-0.2-2.3-0.6-2.8-1c-0.6-0.5-0.9-1.1-0.9-1.9c0-0.9,0.4-1.7,1.1-2.2
			c0.7-0.6,1.7-0.9,3-0.9c1.3,0,2.3,0.3,3,0.9c0.8,0.6,1.1,1.5,1.1,2.5h-2.1c0-1.3-0.7-1.8-2.1-1.8c-1.3,0-2,0.4-2,1.1
			c0,0.4,0.2,0.6,0.5,0.8c0.3,0.2,1.1,0.4,2.1,0.6c1.3,0.2,2.3,0.6,2.9,1.1s0.9,1.1,0.9,1.9c0,0.9-0.4,1.6-1.2,2.2s-1.8,0.8-3.1,0.8
			C348.4,205,347.4,204.7,346.6,204.1z"/>
		<path class="st5" d="M367.8,195v9.9h-2.1v-7.2l0-1.8l-2.3,9h-2.8l-2.4-9l0,1.8v7.2h-2.1V195h3.6l1.9,6.9l0.3,1.8l0.3-1.8l1.9-6.9
			H367.8z"/>
		<path class="st5" d="M376.6,199.6l3.6,5.2h-2.3l-2.1-3l-1-1.6l-1,1.6l-2.1,3h-2.3l3.6-5.2l-3.3-4.7h2.3l1.8,2.6l1,1.5l1-1.5
			l1.8-2.6h2.3L376.6,199.6z"/>
		<path class="st5" d="M391.7,204.8l-0.8-2.6h-4.1l-0.8,2.6h-2.1l3.2-9.9h3.6l3.2,9.9H391.7z M387.3,200.6h3.1l-0.9-2.9l-0.6-2.1
			l-0.6,2.1L387.3,200.6z"/>
		<path class="st5" d="M395.4,195h2.1v6.3c0,1.4,0.7,2,2.2,2c1.6,0,2.2-0.6,2.2-2V195h2.1v6.4c0,1.1-0.4,2-1.2,2.7
			c-0.8,0.7-1.8,1-3.1,1s-2.3-0.3-3.1-1c-0.8-0.7-1.2-1.6-1.2-2.7V195z"/>
		<path class="st5" d="M413.1,204.8l-2.4-3.9h-2v3.9h-2.1V195h4.8c1,0,1.7,0.3,2.3,0.8s0.9,1.3,0.9,2.1c0,0.7-0.2,1.2-0.5,1.7
			s-0.8,0.8-1.4,1.1l0.8,1.1l1.9,3H413.1z M408.7,196.6v2.8h2.2c1.1,0,1.5-0.4,1.5-1.4c0-1-0.5-1.4-1.5-1.4H408.7z"/>
		<path class="st5" d="M423.9,204.8l-0.8-2.6H419l-0.8,2.6h-2.1l3.2-9.9h3.6l3.2,9.9H423.9z M419.5,200.6h3.1l-0.9-2.9l-0.6-2.1
			l-0.6,2.1L419.5,200.6z"/>
	</g>
</g>
</svg>
