<svg width="130" height="50" viewBox="0 0 130 50" fill="none" xmlns="http://www.w3.org/2000/svg">
<path d="M90.3206 47.564L56.9349 14.2007C53.6884 10.9564 53.6884 5.68031 56.9349 2.43604C60.1814 -0.80823 65.461 -0.80823 68.7075 2.43604L102.093 35.7993C105.34 39.0436 105.34 44.3197 102.093 47.564C98.8468 50.8082 93.5783 50.8082 90.3206 47.564Z" fill="#D56B38"/>
<path d="M62.8324 49.6408C60.7093 49.6408 58.6985 48.8101 57.2045 47.3058C54.104 44.1963 54.104 39.1558 57.2045 36.0462L68.4717 24.7867L68.4379 24.7755C71.4597 21.5761 73.2347 17.647 73.4481 13.6506C73.5941 10.9677 73.0324 8.36327 71.8192 6.02828L77.2338 11.4392C77.8629 12.0117 78.6717 12.3372 79.5254 12.3372C80.3118 12.3372 81.0532 12.0678 81.6485 11.5851L81.6598 11.5963L81.9069 11.3606L90.5792 2.69418C92.0844 1.18991 94.084 0.359222 96.2071 0.359222C98.3303 0.359222 100.341 1.18991 101.835 2.69418C103.34 4.19845 104.172 6.19666 104.172 8.31835C104.172 10.44 103.34 12.4383 101.835 13.9425L90.5904 25.1796H90.6016C87.5798 28.3902 85.7937 32.3192 85.5803 36.3156C85.4342 38.9986 85.9959 41.6143 87.2091 43.9492L81.8395 38.5833C81.1992 37.9771 80.3791 37.6403 79.5029 37.6403C78.6492 37.6403 77.8404 37.9547 77.2113 38.5384L68.4492 47.2946C66.9551 48.8101 64.9556 49.6408 62.8324 49.6408Z" fill="white"/>
<path d="M96.207 0.718499C98.2403 0.718499 100.15 1.50429 101.588 2.9412C104.553 5.90482 104.553 10.7319 101.588 13.6955L90.7812 24.4948L89.8938 25.3817L89.9387 25.3929C87.1079 28.5698 85.4453 32.4091 85.2319 36.3045C85.1196 38.3925 85.4117 40.4131 86.1082 42.3439L82.109 38.3475L82.0978 38.3363H82.0865C81.3901 37.674 80.4689 37.3036 79.5141 37.3036C78.5705 37.3036 77.6718 37.6515 76.9866 38.2914L76.9753 38.3026L76.9641 38.3139L68.2132 47.0588C66.7754 48.4957 64.8657 49.2815 62.8324 49.2815C60.7992 49.2815 58.8895 48.4957 57.4516 47.0588C54.486 44.0952 54.486 39.2681 57.4516 36.3045L68.2582 25.5052L69.1568 24.6071L69.1007 24.5959C71.9203 21.4189 73.5829 17.5909 73.7963 13.6955C73.9086 11.6188 73.6165 9.58691 72.92 7.66729L76.9529 11.6974L76.9641 11.7086L76.9753 11.7198C77.6718 12.3597 78.5705 12.7077 79.5141 12.7077C80.278 12.7077 81.0082 12.4832 81.6148 12.0566L81.6709 12.1015L82.154 11.6188L90.8262 2.95243C92.2641 1.5043 94.1738 0.718499 96.207 0.718499ZM96.207 0C94.0727 0 91.9495 0.808284 90.3207 2.43603L81.6485 11.1024C81.0643 11.6862 80.2892 11.978 79.5253 11.978C78.7952 11.978 78.0537 11.7086 77.4808 11.181L68.73 2.43603C75.1218 8.82354 74.313 18.4329 67.7415 24.9888H67.7639L56.9574 35.7881C53.7109 39.0323 53.7109 44.3085 56.9574 47.5527C58.5862 49.1805 60.7093 49.9888 62.8437 49.9888C64.978 49.9888 67.1011 49.1805 68.73 47.5527L77.4808 38.8078C78.0537 38.2802 78.7952 38.0108 79.5253 38.0108C80.278 38.0108 81.0194 38.2914 81.6035 38.8415L90.3207 47.5415C83.9289 41.154 84.7376 31.5447 91.3092 24.9888L102.116 14.1895C105.362 10.9453 105.362 5.66907 102.116 2.4248C100.476 0.808273 98.3414 0 96.207 0Z" fill="#26242B"/>
<path d="M111.653 35.2716V14.7171C111.653 12.7189 113.282 11.0912 115.281 11.0912C117.281 11.0912 118.91 12.7189 118.91 14.7171V35.2716C118.91 37.2698 117.281 38.8976 115.281 38.8976C113.282 38.8976 111.653 37.2698 111.653 35.2716Z" fill="#F5DB12"/>
<path d="M112.012 29.8945C111.99 29.0077 111.282 28.2892 110.406 28.2555H105.003C103.205 28.2555 101.734 26.7962 101.734 24.9888C101.734 24.1132 102.071 23.2937 102.689 22.6763C103.306 22.0588 104.127 21.7221 105.003 21.7221H112.305L112.282 21.6996C114.113 21.5762 115.787 20.9026 117.034 19.78C117.663 19.2187 118.168 18.5564 118.539 17.8155V20.1168C118.573 20.9026 119.123 21.5312 119.865 21.6884V21.7221H120.213H125.56C127.357 21.7221 128.829 23.1814 128.829 24.9888C128.829 26.7962 127.369 28.2555 125.56 28.2555H118.258L118.269 28.278C116.438 28.4015 114.776 29.075 113.518 30.1976C112.889 30.7589 112.372 31.4324 112.001 32.1621L112.012 29.8945Z" fill="white"/>
<path d="M118.191 19.0728V20.1055V20.1168V20.128C118.225 20.9812 118.775 21.6884 119.539 21.9578L119.55 22.0813H120.235H125.582C127.189 22.0813 128.492 23.3835 128.492 24.9888C128.492 26.5941 127.189 27.8963 125.582 27.8963H118.921H117.629L117.674 27.9749C116 28.1994 114.473 28.873 113.293 29.9282C112.956 30.2313 112.653 30.5569 112.383 30.9161V29.9058V29.8945V29.8833C112.361 28.8168 111.507 27.9412 110.429 27.8963H110.417H110.406H105.014C103.408 27.8963 102.105 26.5941 102.105 24.9888C102.105 24.2142 102.408 23.4846 102.958 22.9345C103.509 22.3844 104.239 22.0813 105.014 22.0813H111.675H112.956L112.9 21.9915C114.585 21.767 116.113 21.0934 117.292 20.0382C117.618 19.7575 117.921 19.4208 118.191 19.0728ZM118.91 14.7171C118.91 18.6462 115.697 21.3629 111.653 21.3629V21.3741H104.991C102.992 21.3741 101.363 23.0018 101.363 25C101.363 26.9982 102.992 28.626 104.991 28.626H110.384C111.069 28.6484 111.63 29.2098 111.642 29.9058V35.2717C111.642 31.3427 114.855 28.626 118.899 28.626H125.56C127.56 28.626 129.188 26.9982 129.188 25C129.188 23.0018 127.56 21.3741 125.56 21.3741H120.213C119.505 21.3741 118.932 20.8128 118.899 20.1168V14.7171H118.91Z" fill="#26242B"/>
<path d="M50.7565 8.31837C50.7565 3.72699 47.027 0 42.4325 0C37.838 0 34.1085 3.72699 34.1085 8.31837V24.1356V27.6717C34.1085 30.8262 31.5585 33.3745 28.4019 33.3745C28.3907 33.3745 26.5259 33.3745 25.7396 33.3745C24.9532 33.3745 23.0885 33.3745 23.0773 33.3745C19.9207 33.3745 17.3707 30.8262 17.3707 27.6717V24.1356V50H34.0973H35.4903H36.0294V49.9888C44.7803 49.6969 50.7565 42.4562 50.7565 33.3633V20.9812V8.31837Z" fill="#2767AE"/>
<path d="M15.9777 49.6408C11.7652 49.6408 7.94588 47.9681 5.22739 44.9147C2.55384 41.9286 1.08221 37.8199 1.08221 33.352V8.31835C1.08221 3.92904 4.65449 0.359222 9.04676 0.359222C13.439 0.359222 17.0112 3.92904 17.0112 8.31835V21.2281L17.0449 21.2393V34.744C17.0449 39.1558 18.8086 43.1634 22.0101 46.026C23.8861 47.6987 26.1777 48.9223 28.7053 49.6408H15.9777Z" fill="white"/>
<path d="M9.04677 0.718499C13.2368 0.718499 16.6518 4.13113 16.6518 8.31837V20.9699V21.4975L16.6855 21.5087V34.744C16.6855 37.0453 17.146 39.2344 18.0447 41.2326C18.9097 43.1522 20.1679 44.8586 21.7742 46.2955C23.1672 47.5415 24.7848 48.5406 26.5597 49.2815H15.9778C13.8771 49.2815 11.8888 48.8661 10.0802 48.0467C8.33903 47.2608 6.80007 46.127 5.49699 44.6789C2.8796 41.7602 1.44171 37.7301 1.44171 33.3633V20.9812V8.31837C1.44171 4.1199 4.8567 0.718499 9.04677 0.718499ZM9.04677 0C4.45229 0 0.722778 3.72699 0.722778 8.31837V20.9812V33.3633C0.722778 42.6358 6.94609 50 15.989 50H34.0749C24.796 50 17.4269 43.7808 17.4269 34.744V20.9699L17.3932 20.9587V8.30713C17.3707 3.71576 13.6412 0 9.04677 0Z" fill="#26242B"/>
</svg>
